<svg width="24" height="24" viewBox="0 0 24 24" fill="none" xmlns="http://www.w3.org/2000/svg">
<mask id="mask0_1_1617" style="mask-type:alpha" maskUnits="userSpaceOnUse" x="0" y="0" width="24" height="24">
<rect width="24" height="24" fill="#D9D9D9"/>
</mask>
<g mask="url(#mask0_1_1617)">
<path d="M4 24C3.45 24 2.97933 23.8043 2.588 23.413C2.196 23.021 2 22.55 2 22C2 21.45 2.196 20.979 2.588 20.587C2.97933 20.1957 3.45 20 4 20H20C20.55 20 21.021 20.1957 21.413 20.587C21.8043 20.979 22 21.45 22 22C22 22.55 21.8043 23.021 21.413 23.413C21.021 23.8043 20.55 24 20 24H4ZM5 18C4.71667 18 4.479 17.904 4.287 17.712C4.09567 17.5207 4 17.2833 4 17V14.675C4 14.5417 4.025 14.4123 4.075 14.287C4.125 14.1623 4.2 14.05 4.3 13.95L13.05 5.2L16.8 8.95L8.05 17.7C7.95 17.8 7.83767 17.875 7.713 17.925C7.58767 17.975 7.45833 18 7.325 18H5ZM6 16H6.9L14 8.95L13.05 8L6 15.1V16ZM17.925 7.85L14.175 4.1L15.975 2.3C16.1583 2.1 16.3917 2.004 16.675 2.012C16.9583 2.02066 17.1917 2.11666 17.375 2.3L19.725 4.65C19.9083 4.83333 20 5.06266 20 5.338C20 5.61266 19.9083 5.85 19.725 6.05L17.925 7.85Z" fill="#04B55F"/>
</g>
</svg>
