<svg width="24" height="24" viewBox="0 0 24 24" fill="none" xmlns="http://www.w3.org/2000/svg">
<path d="M0 6.00001V8.66668H24V6.00001C24 5.29277 23.719 4.61449 23.219 4.11439C22.7189 3.61429 22.0406 3.33334 21.3333 3.33334H2.66667C1.95942 3.33334 1.28115 3.61429 0.781049 4.11439C0.280952 4.61449 0 5.29277 0 6.00001Z" fill="#0099B5"/>
<path d="M24 18V15.3333H0V18C0 18.7073 0.280952 19.3855 0.781049 19.8856C1.28115 20.3857 1.95942 20.6667 2.66667 20.6667H21.3333C22.0406 20.6667 22.7189 20.3857 23.219 19.8856C23.719 19.3855 24 18.7073 24 18Z" fill="#1EB53A"/>
<path d="M0 8.66666H24V9.66666H0V8.66666ZM0 14.3333H24V15.3333H0V14.3333Z" fill="#CE1126"/>
<path d="M0 12V14.3333H24V9.66666H0V12Z" fill="#EEEEEE"/>
<path d="M2.79998 6.10667C2.80004 5.61517 2.97415 5.13956 3.29143 4.76419C3.60872 4.38881 4.04868 4.13792 4.53331 4.05601C4.23497 4.00536 3.92918 4.02043 3.63726 4.10015C3.34534 4.17987 3.07433 4.32233 2.84314 4.51758C2.61195 4.71283 2.42615 4.95618 2.2987 5.23064C2.17125 5.5051 2.10522 5.80406 2.10522 6.10667C2.10522 6.40928 2.17125 6.70825 2.2987 6.98271C2.42615 7.25717 2.61195 7.50051 2.84314 7.69576C3.07433 7.89102 3.34534 8.03347 3.63726 8.11319C3.92918 8.19292 4.23497 8.20798 4.53331 8.15734C4.04868 8.07542 3.60872 7.82453 3.29143 7.44916C2.97415 7.07378 2.80004 6.59818 2.79998 6.10667ZM5.92198 7.64201L5.82865 7.35467L5.73531 7.64201H5.43265L5.67731 7.82001L5.58398 8.10734L5.82865 7.92934L6.07265 8.10734L5.97931 7.82001L6.22398 7.64201H5.92198ZM7.72331 7.64201L7.62998 7.35467L7.53665 7.64201H7.23465L7.47931 7.82001L7.38598 8.10734L7.62998 7.92934L7.87465 8.10734L7.78131 7.82001L8.02598 7.64201H7.72331ZM7.62998 5.69067L7.53665 5.97801H7.23465L7.47931 6.15601L7.38598 6.44334L7.62998 6.26534L7.87465 6.44334L7.78131 6.15601L8.02598 5.97801H7.72331L7.62998 5.69067ZM9.52531 7.64201L9.43198 7.35467L9.33865 7.64201H9.03665L9.28065 7.82001L9.18731 8.10734L9.43198 7.92934L9.67665 8.10734L9.58331 7.82001L9.82731 7.64201H9.52531ZM9.43198 5.69067L9.33865 5.97801H9.03665L9.28065 6.15601L9.18731 6.44334L9.43198 6.26534L9.67665 6.44334L9.58331 6.15601L9.82731 5.97801H9.52531L9.43198 5.69067ZM9.43198 4.02667L9.33865 4.31401H9.03665L9.28065 4.49201L9.18731 4.77934L9.43198 4.60134L9.67665 4.77934L9.58331 4.49201L9.82731 4.31401H9.52531L9.43198 4.02667ZM11.3273 7.64201L11.234 7.35467L11.1406 7.64201H10.838L11.0826 7.82001L10.9893 8.10734L11.234 7.92934L11.478 8.10734L11.3846 7.82001L11.6293 7.64201H11.3273ZM11.234 5.69067L11.1406 5.97801H10.838L11.0826 6.15601L10.9893 6.44334L11.234 6.26534L11.478 6.44334L11.3846 6.15601L11.6293 5.97801H11.3273L11.234 5.69067ZM11.234 4.02667L11.1406 4.31401H10.838L11.0826 4.49201L10.9893 4.77934L11.234 4.60134L11.478 4.77934L11.3846 4.49201L11.6293 4.31401H11.3273L11.234 4.02667ZM13.1286 7.64201L13.0353 7.35467L12.942 7.64201H12.64L12.8846 7.82001L12.7913 8.10734L13.0353 7.92934L13.28 8.10734L13.1866 7.82001L13.4313 7.64201H13.1286ZM13.0353 5.69067L12.942 5.97801H12.64L12.8846 6.15601L12.7913 6.44334L13.0353 6.26534L13.28 6.44334L13.1866 6.15601L13.4313 5.97801H13.1286L13.0353 5.69067ZM13.0353 4.02667L12.942 4.31401H12.64L12.8846 4.49201L12.7913 4.77934L13.0353 4.60134L13.28 4.77934L13.1866 4.49201L13.4313 4.31401H13.1286L13.0353 4.02667Z" fill="white"/>
</svg>
