<svg width="24" height="24" viewBox="0 0 24 24" fill="none" xmlns="http://www.w3.org/2000/svg">
<path d="M12 2C9.38005 2 7.25005 4.13 7.25005 6.75C7.25005 9.32 9.26005 11.4 11.88 11.49C11.96 11.48 12.04 11.48 12.1 11.49C12.12 11.49 12.13 11.49 12.15 11.49C12.16 11.49 12.16 11.49 12.17 11.49C14.73 11.4 16.74 9.32 16.75 6.75C16.75 4.13 14.62 2 12 2Z" fill="#606060"/>
<path d="M17.08 14.15C14.29 12.29 9.74004 12.29 6.93004 14.15C5.66004 15 4.96005 16.15 4.96005 17.38C4.96005 18.61 5.66005 19.75 6.92004 20.59C8.32004 21.53 10.16 22 12 22C13.84 22 15.68 21.53 17.08 20.59C18.34 19.74 19.04 18.6 19.04 17.36C19.03 16.13 18.34 14.99 17.08 14.15Z" fill="#606060"/>
</svg>
